999
"DXF R12 Output" (www.mydxf.blogspot.com)
 0 
SECTION
 2 
HEADER
 9 
$ACADVER
 1 
AC1009
 9 
$EXTMIN
 10 
 0 
 20 
 0 
 9 
$EXTMAX
 10 
 8.5 
 20 
 11 
 0 
ENDSEC
 0 
SECTION
 2 
ENTITIES
0
LINE
8
Layer 1
10
0.846666
20
119.380000
11
-0.846666
21
117.686000
0
LINE
8
Layer 1
10
0.000000
20
119.944000
11
0.000000
21
117.122000
0
LINE
8
Layer 1
10
2.257780
20
117.404000
11
1.128890
21
116.275110
0
LINE
8
Layer 1
10
1.693330
20
117.969000
11
0.564440
21
116.840110
0
LINE
8
Layer 1
10
1.128890
20
118.533000
11
0.000000
21
117.404110
0
LINE
8
Layer 1
10
0.846666
20
119.380000
11
-0.846666
21
117.686000
0
LINE
8
Layer 1
10
0.000000
20
119.944000
11
0.000000
21
117.122000
0
LINE
8
Layer 1
10
2.257780
20
117.404000
11
1.128890
21
116.275110
0
LINE
8
Layer 1
10
1.693330
20
117.969000
11
0.564440
21
116.840110
0
LINE
8
Layer 1
10
1.128890
20
118.533000
11
0.000000
21
117.404110
0
LINE
8
Layer 1
10
0.846666
20
119.380000
11
-0.846666
21
117.686000
0
LINE
8
Layer 1
10
0.000000
20
119.944000
11
0.000000
21
117.122000
0
LINE
8
Layer 1
10
2.257780
20
117.404000
11
1.128890
21
116.275110
0
LINE
8
Layer 1
10
1.693330
20
117.969000
11
0.564440
21
116.840110
0
LINE
8
Layer 1
10
1.128890
20
118.533000
11
0.000000
21
117.404110
0
LINE
8
Layer 1
10
0.846666
20
119.380000
11
-0.846666
21
117.686000
0
LINE
8
Layer 1
10
0.000000
20
119.944000
11
0.000000
21
117.122000
0
LINE
8
Layer 1
10
2.257780
20
117.404000
11
1.128890
21
116.275110
0
LINE
8
Layer 1
10
1.693330
20
117.969000
11
0.564440
21
116.840110
0
LINE
8
Layer 1
10
1.128890
20
118.533000
11
0.000000
21
117.404110
0
LINE
8
Calque 1
10
78.777400
20
68.624500
11
0.037337
21
68.624500
0
LINE
8
Calque 1
10
78.777400
20
58.182500
11
78.777400
21
68.624500
0
LINE
8
Calque 1
10
78.777400
20
58.182500
11
0.037337
21
58.182500
0
LINE
8
Calque 1
10
0.037337
20
58.182500
11
0.037337
21
68.624500
0
LINE
8
Calque 1
10
78.777400
20
116.983000
11
78.777400
21
93.276600
0
LINE
8
Calque 1
10
0.037300
20
93.276600
11
78.777400
21
93.276600
0
LINE
8
Calque 1
10
0.037336
20
116.983000
11
0.037336
21
93.276600
0
LINE
8
Calque 1
10
0.037336
20
116.983200
11
78.777400
21
116.983000
0
LINE
8
Calque 1
10
7.234000
20
99.062100
11
7.022334
21
99.428717
0
LINE
8
Calque 1
10
7.022334
20
99.428717
11
6.599000
21
99.428717
0
LINE
8
Calque 1
10
6.599000
20
99.428717
11
6.387334
21
99.062100
0
LINE
8
Calque 1
10
6.387334
20
99.062100
11
6.599000
21
98.695483
0
LINE
8
Calque 1
10
6.599000
20
98.695483
11
7.022334
21
98.695483
0
LINE
8
Calque 1
10
7.022334
20
98.695483
11
7.234000
21
99.062100
0
LINE
8
Calque 1
10
7.234000
20
99.062100
11
7.234000
21
99.062100
0
LINE
8
Calque 1
10
13.160700
20
103.436000
11
11.467300
21
103.436000
0
LINE
8
Calque 1
10
11.467290
20
103.436232
11
11.267730
21
103.353572
0
LINE
8
Calque 1
10
11.267730
20
103.353572
11
11.185068
21
103.154012
0
LINE
8
Calque 1
10
11.185043
20
103.153743
11
11.185100
21
101.461000
0
LINE
8
Calque 1
10
11.185125
20
101.460739
11
11.267785
21
101.261174
0
LINE
8
Calque 1
10
11.267785
20
101.261174
11
11.467347
21
101.178512
0
LINE
8
Calque 1
10
13.160677
20
101.178743
11
11.467300
21
101.179000
0
LINE
8
Calque 1
10
13.160620
20
101.178769
11
13.360183
21
101.261431
0
LINE
8
Calque 1
10
13.360183
20
101.261431
11
13.442842
21
101.460996
0
LINE
8
Calque 1
10
13.442875
20
103.154056
11
13.442900
21
101.461000
0
LINE
8
Calque 1
10
13.442867
20
103.154070
11
13.360476
21
103.354070
0
LINE
8
Calque 1
10
13.360476
20
103.354070
11
13.160700
21
103.437000
0
LINE
8
Calque 1
10
8.927360
20
103.436768
11
7.234000
21
103.436000
0
LINE
8
Calque 1
10
7.233997
20
103.436232
11
7.034436
21
103.353572
0
LINE
8
Calque 1
10
7.034436
20
103.353572
11
6.951775
21
103.154012
0
LINE
8
Calque 1
10
6.951773
20
103.153743
11
6.951770
21
101.461000
0
LINE
8
Calque 1
10
6.951772
20
101.460739
11
7.034431
21
101.261174
0
LINE
8
Calque 1
10
7.034431
20
101.261174
11
7.233994
21
101.178512
0
LINE
8
Calque 1
10
8.927314
20
101.178743
11
7.234000
21
101.179000
0
LINE
8
Calque 1
10
8.927330
20
101.178769
11
9.126893
21
101.261431
0
LINE
8
Calque 1
10
9.126893
20
101.261431
11
9.209552
21
101.460996
0
LINE
8
Calque 1
10
9.209578
20
103.154056
11
9.209580
21
101.461000
0
LINE
8
Calque 1
10
9.209554
20
103.154070
11
9.127143
21
103.354090
0
LINE
8
Calque 1
10
9.127143
20
103.354090
11
8.927330
21
103.437000
0
LINE
8
Calque 1
10
6.105110
20
103.436000
11
4.411780
21
103.436000
0
LINE
8
Calque 1
10
4.411778
20
103.436232
11
4.212218
21
103.353572
0
LINE
8
Calque 1
10
4.212218
20
103.353572
11
4.129556
21
103.154012
0
LINE
8
Calque 1
10
4.129560
20
103.153743
11
4.129560
21
101.461000
0
LINE
8
Calque 1
10
4.129556
20
101.460739
11
4.212215
21
101.261174
0
LINE
8
Calque 1
10
4.212215
20
101.261174
11
4.411778
21
101.178512
0
LINE
8
Calque 1
10
6.105108
20
101.178743
11
4.411780
21
101.179000
0
LINE
8
Calque 1
10
6.105110
20
101.178769
11
6.304673
21
101.261431
0
LINE
8
Calque 1
10
6.304673
20
101.261431
11
6.387332
21
101.460996
0
LINE
8
Calque 1
10
6.387334
20
103.154056
11
6.387330
21
101.461000
0
LINE
8
Calque 1
10
6.387328
20
103.154070
11
6.304666
21
103.353630
0
LINE
8
Calque 1
10
6.304666
20
103.353630
11
6.105106
21
103.436290
0
LINE
8
Calque 1
10
2.012890
20
115.008000
11
76.801600
21
115.008000
0
LINE
8
Calque 1
10
2.012900
20
115.008000
11
2.012890
21
105.694000
0
LINE
8
Calque 1
10
76.801590
20
105.694000
11
2.012890
21
105.694000
0
LINE
8
Calque 1
10
76.801590
20
105.694000
11
76.801600
21
115.008000
0
LINE
8
Calque 1
10
20.780600
20
95.252400
11
58.034000
21
95.252400
0
LINE
8
Calque 1
10
58.034000
20
104.565400
11
58.034000
21
95.252400
0
LINE
8
Calque 1
10
20.780600
20
104.565000
11
58.034000
21
104.565000
0
LINE
8
Calque 1
10
20.780700
20
104.565000
11
20.780600
21
95.252400
0
LINE
8
Calque 1
10
78.777400
20
57.286500
11
0.037336
21
57.286500
0
LINE
8
Calque 1
10
78.777400
20
47.691200
11
78.777400
21
57.286500
0
LINE
8
Calque 1
10
78.777400
20
47.691250
11
0.037336
21
47.691200
0
LINE
8
Calque 1
10
0.037336
20
47.691200
11
0.037336
21
57.286500
0
LINE
8
Calque 1
10
67.427800
20
81.121900
11
67.215282
21
80.096699
0
LINE
8
Calque 1
10
67.215282
20
80.096699
11
66.610080
21
79.227575
0
LINE
8
Calque 1
10
66.610080
20
79.227575
11
65.704332
21
78.646845
0
LINE
8
Calque 1
10
65.704332
20
78.646845
11
64.635930
21
78.442920
0
LINE
8
Calque 1
10
64.635930
20
78.442920
11
63.567528
21
78.646845
0
LINE
8
Calque 1
10
63.567528
20
78.646845
11
62.661780
21
79.227575
0
LINE
8
Calque 1
10
62.661780
20
79.227575
11
62.056578
21
80.096699
0
LINE
8
Calque 1
10
62.056578
20
80.096699
11
61.844060
21
81.121900
0
LINE
8
Calque 1
10
61.844060
20
81.121900
11
62.056578
21
82.147101
0
LINE
8
Calque 1
10
62.056578
20
82.147101
11
62.661780
21
83.016225
0
LINE
8
Calque 1
10
62.661780
20
83.016225
11
63.567528
21
83.596955
0
LINE
8
Calque 1
10
63.567528
20
83.596955
11
64.635930
21
83.800880
0
LINE
8
Calque 1
10
64.635930
20
83.800880
11
65.704332
21
83.596955
0
LINE
8
Calque 1
10
65.704332
20
83.596955
11
66.610080
21
83.016225
0
LINE
8
Calque 1
10
66.610080
20
83.016225
11
67.215282
21
82.147101
0
LINE
8
Calque 1
10
67.215282
20
82.147101
11
67.427800
21
81.121900
0
LINE
8
Calque 1
10
67.427800
20
81.121900
11
67.427800
21
81.121900
0
LINE
8
Calque 1
10
16.903000
20
81.121900
11
16.683574
21
80.079139
0
LINE
8
Calque 1
10
16.683574
20
80.079139
11
16.085240
21
79.227617
0
LINE
8
Calque 1
10
16.085240
20
79.227617
11
15.197811
21
78.653511
0
LINE
8
Calque 1
10
15.197811
20
78.653511
11
14.111100
21
78.443000
0
LINE
8
Calque 1
10
14.111100
20
78.443000
11
13.024389
21
78.653511
0
LINE
8
Calque 1
10
13.024389
20
78.653511
11
12.136960
21
79.227617
0
LINE
8
Calque 1
10
12.136960
20
79.227617
11
11.538626
21
80.079139
0
LINE
8
Calque 1
10
11.538626
20
80.079139
11
11.319200
21
81.121900
0
LINE
8
Calque 1
10
11.319200
20
81.121900
11
11.531715
21
82.147114
0
LINE
8
Calque 1
10
11.531715
20
82.147114
11
12.136923
21
83.016248
0
LINE
8
Calque 1
10
12.136923
20
83.016248
11
13.042684
21
83.596981
0
LINE
8
Calque 1
10
13.042684
20
83.596981
11
14.111100
21
83.800900
0
LINE
8
Calque 1
10
14.111100
20
83.800900
11
15.179502
21
83.596975
0
LINE
8
Calque 1
10
15.179502
20
83.596975
11
16.085250
21
83.016245
0
LINE
8
Calque 1
10
16.085250
20
83.016245
11
16.690452
21
82.147121
0
LINE
8
Calque 1
10
16.690452
20
82.147121
11
16.902970
21
81.121920
0
LINE
8
Calque 1
10
16.902970
20
81.121920
11
16.903000
21
81.121900
0
LINE
8
Calque 1
10
78.777400
20
92.380500
11
0.037336
21
92.380500
0
LINE
8
Calque 1
10
78.777400
20
69.520600
11
78.777400
21
92.380500
0
LINE
8
Calque 1
10
78.777400
20
69.520600
11
40.818300
21
69.520600
0
LINE
8
Calque 1
10
37.995980
20
69.520555
11
38.013111
21
69.741351
0
LINE
8
Calque 1
10
38.013111
20
69.741351
11
38.064938
21
69.956641
0
LINE
8
Calque 1
10
38.064938
20
69.956641
11
38.149675
21
70.161249
0
LINE
8
Calque 1
10
38.149675
20
70.161249
11
38.265273
21
70.350129
0
LINE
8
Calque 1
10
38.265273
20
70.350129
11
38.409277
21
70.518364
0
LINE
8
Calque 1
10
38.409277
20
70.518364
11
38.577512
21
70.662373
0
LINE
8
Calque 1
10
38.577512
20
70.662373
11
38.766400
21
70.777951
0
LINE
8
Calque 1
10
38.766400
20
70.777951
11
38.971000
21
70.862716
0
LINE
8
Calque 1
10
38.971000
20
70.862716
11
39.186290
21
70.914532
0
LINE
8
Calque 1
10
39.186290
20
70.914532
11
39.407086
21
70.931663
0
LINE
8
Calque 1
10
39.407086
20
70.931663
11
39.627874
21
70.914532
0
LINE
8
Calque 1
10
39.627874
20
70.914532
11
39.843159
21
70.862697
0
LINE
8
Calque 1
10
39.843159
20
70.862697
11
40.047773
21
70.777959
0
LINE
8
Calque 1
10
40.047773
20
70.777959
11
40.236647
21
70.662361
0
LINE
8
Calque 1
10
40.236647
20
70.662361
11
40.404888
21
70.518357
0
LINE
8
Calque 1
10
40.404888
20
70.518357
11
40.548900
21
70.350122
0
LINE
8
Calque 1
10
40.548900
20
70.350122
11
40.664476
21
70.161234
0
LINE
8
Calque 1
10
40.664476
20
70.161234
11
40.749242
21
69.956634
0
LINE
8
Calque 1
10
40.749242
20
69.956634
11
40.801066
21
69.741344
0
LINE
8
Calque 1
10
40.801066
20
69.741344
11
40.818197
21
69.520548
0
LINE
8
Calque 1
10
37.995727
20
69.520599
11
0.037336
21
69.520600
0
LINE
8
Calque 1
10
0.037336
20
69.520600
11
0.037336
21
92.380500
 0 
ENDSEC
 0 
EOF