<?xml version="1.0" encoding="UTF-8" standalone="no"?>
<!-- Created with Inkscape (http://www.inkscape.org/) -->

<svg
   width="297mm"
   height="420mm"
   viewBox="0 0 297 420"
   version="1.1"
   id="svg5"
   sodipodi:docname="panels.svg"
   inkscape:version="1.1.2 (0a00cf5339, 2022-02-04)"
   xmlns:inkscape="http://www.inkscape.org/namespaces/inkscape"
   xmlns:sodipodi="http://sodipodi.sourceforge.net/DTD/sodipodi-0.dtd"
   xmlns="http://www.w3.org/2000/svg"
   xmlns:svg="http://www.w3.org/2000/svg">
  <sodipodi:namedview
     id="namedview7"
     pagecolor="#ffffff"
     bordercolor="#666666"
     borderopacity="1.0"
     inkscape:pageshadow="2"
     inkscape:pageopacity="0.0"
     inkscape:pagecheckerboard="0"
     inkscape:document-units="mm"
     showgrid="false"
     inkscape:zoom="0.75187991"
     inkscape:cx="590.51983"
     inkscape:cy="477.46987"
     inkscape:window-width="1920"
     inkscape:window-height="1029"
     inkscape:window-x="0"
     inkscape:window-y="27"
     inkscape:window-maximized="1"
     inkscape:current-layer="layer1" />
  <defs
     id="defs2">
    <marker
       id="DistanceX"
       orient="auto"
       refX="0"
       refY="0"
       style="overflow:visible">
      <path
         d="M 3,-3 -3,3 M 0,-5 V 5"
         style="stroke:#000000;stroke-width:0.5"
         id="path27" />
    </marker>
    <pattern
       id="Hatch"
       patternUnits="userSpaceOnUse"
       width="8"
       height="8"
       x="0"
       y="0">
      <path
         d="M8 4 l-4,4"
         stroke="#000000"
         stroke-width="0.25"
         linecap="square"
         id="path30" />
      <path
         d="M6 2 l-4,4"
         stroke="#000000"
         stroke-width="0.25"
         linecap="square"
         id="path32" />
      <path
         d="M4 0 l-4,4"
         stroke="#000000"
         stroke-width="0.25"
         linecap="square"
         id="path34" />
    </pattern>
    <symbol
       id="*MODEL_SPACE" />
    <symbol
       id="*PAPER_SPACE" />
    <marker
       id="DistanceX-3"
       orient="auto"
       refX="0"
       refY="0"
       style="overflow:visible">
      <path
         d="M 3,-3 -3,3 M 0,-5 V 5"
         style="stroke:#000000;stroke-width:0.5"
         id="path195" />
    </marker>
    <pattern
       id="Hatch-6"
       patternUnits="userSpaceOnUse"
       width="8"
       height="8"
       x="0"
       y="0">
      <path
         d="M8 4 l-4,4"
         stroke="#000000"
         stroke-width="0.25"
         linecap="square"
         id="path198" />
      <path
         d="M6 2 l-4,4"
         stroke="#000000"
         stroke-width="0.25"
         linecap="square"
         id="path200" />
      <path
         d="M4 0 l-4,4"
         stroke="#000000"
         stroke-width="0.25"
         linecap="square"
         id="path202" />
    </pattern>
    <symbol
       id="*MODEL_SPACE-7" />
    <symbol
       id="*PAPER_SPACE-5" />
    <marker
       id="DistanceX-35"
       orient="auto"
       refX="0"
       refY="0"
       style="overflow:visible">
      <path
         d="M 3,-3 -3,3 M 0,-5 V 5"
         style="stroke:#000000;stroke-width:0.5"
         id="path357" />
    </marker>
    <pattern
       id="Hatch-62"
       patternUnits="userSpaceOnUse"
       width="8"
       height="8"
       x="0"
       y="0">
      <path
         d="M8 4 l-4,4"
         stroke="#000000"
         stroke-width="0.25"
         linecap="square"
         id="path360" />
      <path
         d="M6 2 l-4,4"
         stroke="#000000"
         stroke-width="0.25"
         linecap="square"
         id="path362" />
      <path
         d="M4 0 l-4,4"
         stroke="#000000"
         stroke-width="0.25"
         linecap="square"
         id="path364" />
    </pattern>
    <symbol
       id="*MODEL_SPACE-9" />
    <symbol
       id="*PAPER_SPACE-1" />
    <marker
       id="DistanceX-2"
       orient="auto"
       refX="0"
       refY="0"
       style="overflow:visible">
      <path
         d="M 3,-3 -3,3 M 0,-5 V 5"
         style="stroke:#000000;stroke-width:0.5"
         id="path618" />
    </marker>
    <pattern
       id="Hatch-7"
       patternUnits="userSpaceOnUse"
       width="8"
       height="8"
       x="0"
       y="0">
      <path
         d="M8 4 l-4,4"
         stroke="#000000"
         stroke-width="0.25"
         linecap="square"
         id="path621" />
      <path
         d="M6 2 l-4,4"
         stroke="#000000"
         stroke-width="0.25"
         linecap="square"
         id="path623" />
      <path
         d="M4 0 l-4,4"
         stroke="#000000"
         stroke-width="0.25"
         linecap="square"
         id="path625" />
    </pattern>
    <symbol
       id="*MODEL_SPACE-0" />
    <symbol
       id="*PAPER_SPACE-9" />
  </defs>
  <g
     inkscape:label="Calque 1"
     inkscape:groupmode="layer"
     id="layer1">
    <path
       id="path275"
       style="fill:none;stroke:#000000;stroke-width:0.264583"
       d="M 279.13278,176.84116 H 0.132298 M 279.13278,213.8405 v -36.99934 m 0,36.99934 H 0.132298 m 0,0 v -36.99934" />
    <path
       id="path503"
       style="fill:none;stroke:#000000;stroke-width:0.264583"
       d="M 279.13277,5.4914018 V 89.491317 m -279.0004785,0 H 279.13277 M 0.1322915,5.4914018 V 89.491317 m 0,-83.9999152 H 279.13277 M 25.632291,68.991269 a 1.5,1.5 0 1 0 -3,0 1.5,1.5 0 1 0 3,0 z M 46.632282,53.49211 h -5.999956 m -3.4e-5,-8.21e-4 a 1.0000001,1.0000001 0 0 0 -1.000001,0.999993 m -9e-5,9.53e-4 v 5.998104 m 9e-5,9.26e-4 a 1.0000001,1.0000001 0 0 0 1.000001,1.000019 m 5.99999,-8.2e-4 h -5.999956 m 5.999964,8.2e-4 a 1.0000001,1.0000001 0 0 0 1.000001,-1.000019 m 1.16e-4,-5.99903 v 5.998104 m -1.16e-4,-5.999057 A 1.0000001,1.0000001 0 0 0 46.63229,53.491289 m -15.00003,8.21e-4 h -5.999957 m -1.2e-5,-8.21e-4 a 1.0000001,1.0000001 0 0 0 -1,0.999993 m -7e-6,9.53e-4 v 5.998104 m 7e-6,9.26e-4 a 1.0000001,1.0000001 0 0 0 1,1.000019 m 5.999969,-8.2e-4 h -5.999957 m 5.999988,8.2e-4 a 1.0000001,1.0000001 0 0 0 1.000001,-1.000019 m 9.3e-5,-5.99903 v 5.998104 m -9.3e-5,-5.999057 A 1.0000001,1.0000001 0 0 0 31.632291,53.491289 M 21.63228,53.49211 h -5.999983 m -6e-6,-8.21e-4 a 1.0000001,1.0000001 0 0 0 -1,0.999993 m 1.3e-5,9.53e-4 v 5.998104 m -1.3e-5,9.26e-4 a 1.0000001,1.0000001 0 0 0 1,1.000019 m 5.999989,-8.2e-4 h -5.999983 m 5.999994,8.2e-4 a 1.0000001,1.0000001 0 0 0 1,-1.000019 m 8e-6,-5.99903 v 5.998104 m -8e-6,-5.999057 a 1.0000001,1.0000001 0 0 0 -1,-0.999993 M 7.1322933,12.491218 H 272.13189 m -264.9995967,0 V 45.49111 m 264.9995967,0 H 7.1322933 m 264.9995967,0 V 12.491218 M 73.632217,82.490442 H 205.63231 m 0,-32.998832 V 82.490442 M 73.632217,49.49161 H 205.63231 m -132.000093,0 v 32.998832" />
    <path
       id="path698"
       style="fill:none;stroke:#000000;stroke-width:0.264583"
       d="M 279.13277,217.0155 H 0.1322932 M 279.13277,251.01446 V 217.0155 m 0,33.99896 H 0.1322932 m 0,0 V 217.0155" />
    <path
       id="path904-5"
       style="vector-effect:none;fill:none;stroke:#000000;stroke-width:0.215084;stop-color:#000000"
       d="m 238.91745,132.55901 a 9.8924585,9.4924669 0 0 1 -9.89246,9.49246 9.8924585,9.4924669 0 0 1 -9.89245,-9.49246 9.8924585,9.4924669 0 0 1 9.89245,-9.49247 9.8924585,9.4924669 0 0 1 9.89246,9.49247 z m -179.024992,0 A 9.8924585,9.4924669 0 0 1 50,142.05147 9.8924585,9.4924669 0 0 1 40.107542,132.55901 9.8924585,9.4924669 0 0 1 50,123.06654 a 9.8924585,9.4924669 0 0 1 9.892458,9.49247 z M 279.13277,92.666335 H 0.1322935 M 279.13277,173.66614 V 92.666335 m 0,80.999805 H 144.63184 m -10.00036,1.6e-4 c 0.0114,-0.26189 0.023,-0.52374 0.0607,-0.78235 0.0377,-0.25858 0.10173,-0.51387 0.18364,-0.76284 0.082,-0.24898 0.18177,-0.4916 0.30025,-0.72499 0.11846,-0.23339 0.25554,-0.45754 0.4096,-0.66926 0.15407,-0.2117 0.3251,-0.41093 0.51025,-0.59611 0.18516,-0.18518 0.38439,-0.35629 0.59611,-0.51027 0.21172,-0.15399 0.4359,-0.29083 0.66929,-0.40953 0.23339,-0.11869 0.47599,-0.21923 0.72496,-0.30035 0.24894,-0.0811 0.50427,-0.1428 0.76284,-0.1836 0.25861,-0.0408 0.52047,-0.0607 0.78235,-0.0607 0.26186,0 0.52372,0.0198 0.78232,0.0607 0.25858,0.0408 0.51387,0.10258 0.76282,0.18367 0.24897,0.0811 0.49162,0.18156 0.72501,0.30025 0.23339,0.11869 0.45755,0.25561 0.66924,0.4096 0.21172,0.15402 0.41098,0.3251 0.59613,0.51025 0.18516,0.18516 0.35624,0.38439 0.51028,0.59611 0.15404,0.21172 0.29104,0.4359 0.40952,0.66929 0.11848,0.23341 0.21841,0.47601 0.30035,0.72496 0.082,0.24894 0.14592,0.50426 0.18363,0.76284 0.0377,0.25861 0.0492,0.52046 0.0607,0.78235 m -10.00088,-1.8e-4 H 0.1322935 m 0,0 V 92.666335" />
  </g>
</svg>
